<svg width="21" height="25" viewBox="0 0 21 25" fill="none" xmlns="http://www.w3.org/2000/svg"><mask id="a" maskUnits="userSpaceOnUse" x="0" y="4" width="21" height="21"><path fill-rule="evenodd" clip-rule="evenodd" d="M0 4.386h20.962V24.95H0V4.386z" fill="#fff"/></mask><g mask="url(#a)"><path fill-rule="evenodd" clip-rule="evenodd" d="M10.481 22.36c-4.324 0-7.842-3.45-7.842-7.692 0-2.71 1.437-5.096 3.602-6.467a5.935 5.935 0 00-1.884 4.332c0 3.318 2.742 6.008 6.124 6.008 3.383 0 6.124-2.69 6.124-6.008a5.934 5.934 0 00-1.883-4.332c2.165 1.371 3.602 3.757 3.602 6.467 0 4.242-3.518 7.693-7.843 7.693zm0-13.246c1.922 0 3.486 1.534 3.486 3.419s-1.564 3.42-3.486 3.42c-1.922 0-3.485-1.535-3.485-3.42s1.563-3.419 3.485-3.419zm0-4.728C4.693 4.386 0 8.99 0 14.668c0 5.678 4.693 10.281 10.481 10.281 5.789 0 10.481-4.603 10.481-10.281 0-5.679-4.692-10.282-10.48-10.282z" fill="#017FFF"/></g><path fill-rule="evenodd" clip-rule="evenodd" d="M10.501 3.924h.106c1.104 0 2-.879 2-1.962 0-1.084-.896-1.962-2-1.962H10.5c-1.105 0-2 .878-2 1.962 0 1.083.895 1.962 2 1.962z" fill="#017FFF"/></svg>
